<?xml version="1.0" encoding="UTF-8" standalone="no"?>
<!-- Created with Inkscape (http://www.inkscape.org/) -->

<svg
   xmlns:dc="http://purl.org/dc/elements/1.1/"
   xmlns:cc="http://creativecommons.org/ns#"
   xmlns:rdf="http://www.w3.org/1999/02/22-rdf-syntax-ns#"
   xmlns:svg="http://www.w3.org/2000/svg"
   xmlns="http://www.w3.org/2000/svg"
   xmlns:sodipodi="http://sodipodi.sourceforge.net/DTD/sodipodi-0.dtd"
   xmlns:inkscape="http://www.inkscape.org/namespaces/inkscape"
   width="144.69778mm"
   height="141.12962mm"
   viewBox="0 0 512.70869 500.0656"
   id="svg2"
   version="1.1"
   inkscape:version="0.91 r13725"
   sodipodi:docname="github_grey.svg">
  <defs
     id="defs4" />
  <sodipodi:namedview
     id="base"
     pagecolor="#ffffff"
     bordercolor="#666666"
     borderopacity="1.0"
     inkscape:pageopacity="0.0"
     inkscape:pageshadow="2"
     inkscape:zoom="0.49497475"
     inkscape:cx="102.72699"
     inkscape:cy="7.9024199"
     inkscape:document-units="px"
     inkscape:current-layer="layer1"
     showgrid="false"
     inkscape:window-width="1680"
     inkscape:window-height="993"
     inkscape:window-x="0"
     inkscape:window-y="0"
     inkscape:window-maximized="1"
     fit-margin-top="0.1"
     fit-margin-left="0.1"
     fit-margin-right="0.1"
     fit-margin-bottom="0.1" />
  <metadata
     id="metadata7">
    <rdf:RDF>
      <cc:Work
         rdf:about="">
        <dc:format>image/svg+xml</dc:format>
        <dc:type
           rdf:resource="http://purl.org/dc/dcmitype/StillImage" />
        <dc:title />
      </cc:Work>
    </rdf:RDF>
  </metadata>
  <g
     inkscape:label="Layer 1"
     inkscape:groupmode="layer"
     id="layer1"
     transform="translate(-778.28191,-176.60021)">
    <g
       id="g3423"
       transform="translate(778.63624,170.63354)"
       style="fill:#828282;fill-opacity:1">
      <g
         id="icomoon-ignore-3"
         style="fill:#828282;fill-opacity:1" />
      <path
         id="path3415"
         d="M 256.004,6.321 C 114.635,6.321 0,120.93 0,262.32 c 0,113.107 73.352,209.066 175.068,242.918 12.793,2.369 17.496,-5.555 17.496,-12.316 0,-6.102 -0.24,-26.271 -0.348,-47.662 -71.224,15.488 -86.252,-30.205 -86.252,-30.205 C 94.323,385.467 77.54,377.597 77.54,377.597 c -23.226,-15.889 1.755,-15.562 1.755,-15.562 25.7,1.805 39.238,26.383 39.238,26.383 22.836,39.135 59.888,27.82 74.502,21.279 2.294,-16.543 8.926,-27.84 16.253,-34.232 C 152.423,368.994 92.65,347.04 92.65,248.949 c 0,-27.949 10.002,-50.787 26.38,-68.714 -2.658,-6.45 -11.427,-32.486 2.476,-67.75 0,0 21.503,-6.876 70.42,26.245 20.418,-5.674 42.318,-8.518 64.077,-8.617 21.751,0.099 43.668,2.943 64.128,8.617 48.867,-33.122 70.328,-26.245 70.328,-26.245 13.936,35.264 5.175,61.3 2.518,67.75 16.41,17.928 26.347,40.766 26.347,68.714 0,98.327 -59.889,119.975 -116.895,126.312 9.182,7.945 17.362,23.523 17.362,47.406 0,34.254 -0.298,61.822 -0.298,70.254 0,6.814 4.611,14.797 17.586,12.283 C 438.74,471.316 512,375.391 512,262.32 512,120.93 397.383,6.321 256.004,6.321 Z"
         inkscape:connector-curvature="0"
         style="fill:#828282;fill-opacity:1" />
    </g>
  </g>
</svg>
