<?xml version="1.0" encoding="UTF-8" standalone="no"?>
<!-- Created with Inkscape (http://www.inkscape.org/) -->

<svg
   xmlns:dc="http://purl.org/dc/elements/1.1/"
   xmlns:cc="http://creativecommons.org/ns#"
   xmlns:rdf="http://www.w3.org/1999/02/22-rdf-syntax-ns#"
   xmlns:svg="http://www.w3.org/2000/svg"
   xmlns="http://www.w3.org/2000/svg"
   xmlns:sodipodi="http://sodipodi.sourceforge.net/DTD/sodipodi-0.dtd"
   xmlns:inkscape="http://www.inkscape.org/namespaces/inkscape"
   width="144.61311mm"
   height="144.66954mm"
   viewBox="0 0 512.40867 512.60861"
   id="svg2"
   version="1.1"
   inkscape:version="0.91 r13725"
   sodipodi:docname="instagram_grey.svg">
  <defs
     id="defs4" />
  <sodipodi:namedview
     id="base"
     pagecolor="#ffffff"
     bordercolor="#666666"
     borderopacity="1.0"
     inkscape:pageopacity="0.0"
     inkscape:pageshadow="2"
     inkscape:zoom="0.49497475"
     inkscape:cx="-582.30637"
     inkscape:cy="68.722142"
     inkscape:document-units="px"
     inkscape:current-layer="layer1"
     showgrid="false"
     inkscape:window-width="1680"
     inkscape:window-height="993"
     inkscape:window-x="0"
     inkscape:window-y="0"
     inkscape:window-maximized="1"
     fit-margin-top="0.1"
     fit-margin-left="0.1"
     fit-margin-right="0.1"
     fit-margin-bottom="0.1" />
  <metadata
     id="metadata7">
    <rdf:RDF>
      <cc:Work
         rdf:about="">
        <dc:format>image/svg+xml</dc:format>
        <dc:type
           rdf:resource="http://purl.org/dc/dcmitype/StillImage" />
        <dc:title />
      </cc:Work>
    </rdf:RDF>
  </metadata>
  <g
     inkscape:label="Layer 1"
     inkscape:groupmode="layer"
     id="layer1"
     transform="translate(-1463.3153,-224.8769)">
    <g
       id="g3444"
       transform="translate(1463.6696,225.23123)"
       style="fill:#828282;fill-opacity:1">
      <g
         id="icomoon-ignore-6"
         style="fill:#828282;fill-opacity:1" />
      <path
         id="path3432"
         d="m 256,46.1 c 68.4,0 76.5,0.3 103.4,1.5 25,1.1 38.5,5.3 47.5,8.8 11.9,4.6 20.5,10.2 29.4,19.1 9,9 14.5,17.5 19.2,29.4 3.5,9 7.7,22.6 8.8,47.5 1.2,27 1.5,35.1 1.5,103.4 0,68.3 -0.3,76.5 -1.5,103.4 -1.1,25 -5.3,38.5 -8.8,47.5 -4.6,11.9 -10.2,20.5 -19.1,29.4 -9,9 -17.5,14.5 -29.4,19.2 -9,3.5 -22.6,7.7 -47.5,8.8 -27,1.2 -35.1,1.5 -103.4,1.5 -68.3,0 -76.5,-0.3 -103.4,-1.5 -25,-1.1 -38.5,-5.3 -47.5,-8.8 -11.9,-4.6 -20.5,-10.2 -29.4,-19.1 -9,-9 -14.5,-17.5 -19.2,-29.4 -3.5,-9 -7.7,-22.6 -8.8,-47.5 -1.2,-27 -1.5,-35.1 -1.5,-103.4 0,-68.3 0.3,-76.5 1.5,-103.4 1.1,-25 5.3,-38.5 8.8,-47.5 4.6,-11.9 10.2,-20.5 19.1,-29.4 9,-9 17.5,-14.5 29.4,-19.2 9,-3.5 22.6,-7.7 47.5,-8.8 26.9,-1.2 35,-1.5 103.4,-1.5 z M 256,0 C 186.5,0 177.8,0.3 150.5,1.5 123.3,2.7 104.6,7.1 88.4,13.4 71.5,20 57.2,28.7 43,43 28.7,57.2 20,71.5 13.4,88.3 7.1,104.6 2.7,123.2 1.5,150.4 0.3,177.8 0,186.5 0,256 c 0,69.5 0.3,78.2 1.5,105.5 1.2,27.2 5.6,45.9 11.9,62.1 6.6,16.9 15.3,31.2 29.6,45.4 14.2,14.2 28.5,23 45.3,29.5 16.3,6.3 34.9,10.7 62.1,11.9 27.3,1.2 36,1.5 105.5,1.5 69.5,0 78.2,-0.3 105.5,-1.5 27.2,-1.2 45.9,-5.6 62.1,-11.9 16.8,-6.5 31.1,-15.3 45.3,-29.5 14.2,-14.2 23,-28.5 29.5,-45.3 6.3,-16.3 10.7,-34.9 11.9,-62.1 1.2,-27.3 1.5,-36 1.5,-105.5 0,-69.5 -0.3,-78.2 -1.5,-105.5 C 509,123.4 504.6,104.7 498.3,88.5 492,71.5 483.3,57.2 469,43 454.8,28.8 440.5,20 423.7,13.5 407.4,7.2 388.8,2.8 361.6,1.6 334.2,0.3 325.5,0 256,0 l 0,0 z"
         inkscape:connector-curvature="0"
         style="fill:#828282;fill-opacity:1" />
      <path
         id="path3434"
         d="m 256,124.5 c -72.6,0 -131.5,58.9 -131.5,131.5 0,72.6 58.9,131.5 131.5,131.5 72.6,0 131.5,-58.9 131.5,-131.5 0,-72.6 -58.9,-131.5 -131.5,-131.5 z m 0,216.8 c -47.1,0 -85.3,-38.2 -85.3,-85.3 0,-47.1 38.2,-85.3 85.3,-85.3 47.1,0 85.3,38.2 85.3,85.3 0,47.1 -38.2,85.3 -85.3,85.3 z"
         inkscape:connector-curvature="0"
         style="fill:#828282;fill-opacity:1" />
      <path
         id="path3436"
         d="m 423.4,119.3 c 0,16.955 -13.745,30.7 -30.7,30.7 -16.955,0 -30.7,-13.745 -30.7,-30.7 0,-16.955 13.745,-30.7 30.7,-30.7 16.955,0 30.7,13.745 30.7,30.7 z"
         inkscape:connector-curvature="0"
         style="fill:#828282;fill-opacity:1" />
    </g>
  </g>
</svg>
