<?xml version="1.0" encoding="UTF-8" standalone="no"?>
<!-- Created with Inkscape (http://www.inkscape.org/) -->

<svg
   xmlns:dc="http://purl.org/dc/elements/1.1/"
   xmlns:cc="http://creativecommons.org/ns#"
   xmlns:rdf="http://www.w3.org/1999/02/22-rdf-syntax-ns#"
   xmlns:svg="http://www.w3.org/2000/svg"
   xmlns="http://www.w3.org/2000/svg"
   xmlns:sodipodi="http://sodipodi.sourceforge.net/DTD/sodipodi-0.dtd"
   xmlns:inkscape="http://www.inkscape.org/namespaces/inkscape"
   width="144.726mm"
   height="117.60445mm"
   viewBox="0 0 512.80865 416.70867"
   id="svg2"
   version="1.1"
   inkscape:version="0.91 r13725"
   sodipodi:docname="twitter_grey.svg">
  <defs
     id="defs4" />
  <sodipodi:namedview
     id="base"
     pagecolor="#ffffff"
     bordercolor="#666666"
     borderopacity="1.0"
     inkscape:pageopacity="0.0"
     inkscape:pageshadow="2"
     inkscape:zoom="0.49497475"
     inkscape:cx="777.73333"
     inkscape:cy="16.468702"
     inkscape:document-units="px"
     inkscape:current-layer="layer1"
     showgrid="false"
     inkscape:window-width="1680"
     inkscape:window-height="993"
     inkscape:window-x="0"
     inkscape:window-y="0"
     inkscape:window-maximized="1"
     fit-margin-top="0.1"
     fit-margin-left="0.1"
     fit-margin-right="0.1"
     fit-margin-bottom="0.1" />
  <metadata
     id="metadata7">
    <rdf:RDF>
      <cc:Work
         rdf:about="">
        <dc:format>image/svg+xml</dc:format>
        <dc:type
           rdf:resource="http://purl.org/dc/dcmitype/StillImage" />
        <dc:title></dc:title>
      </cc:Work>
    </rdf:RDF>
  </metadata>
  <g
     inkscape:label="Layer 1"
     inkscape:groupmode="layer"
     id="layer1"
     transform="translate(-99.234957,-268.52338)">
    <g
       id="g3360"
       transform="translate(99.689288,204.87771)"
       style="fill:#828282;fill-opacity:1">
      <g
         id="icomoon-ignore"
         style="fill:#828282;fill-opacity:1" />
      <path
         id="path3352"
         d="m 512,113.2 c -18.8,8.4 -39.1,14 -60.3,16.5 21.7,-13 38.3,-33.6 46.2,-58.1 -20.3,12 -42.8,20.8 -66.7,25.5 C 412,76.7 384.7,64 354.5,64 c -58,0 -105,47 -105,105 0,8.2 0.9,16.2 2.7,23.9 C 164.9,188.5 87.5,146.7 35.7,83.1 c -9,15.5 -14.2,33.6 -14.2,52.8 0,36.4 18.5,68.6 46.7,87.4 C 51,222.8 34.8,218 20.6,210.2 c 0,0.4 0,0.9 0,1.3 0,50.9 36.2,93.4 84.3,103 -8.8,2.4 -18.1,3.7 -27.7,3.7 -6.8,0 -13.3,-0.7 -19.8,-1.9 13.4,41.7 52.2,72.1 98.1,73 -36,28.2 -81.2,45 -130.5,45 -8.5,0 -16.8,-0.5 -25.1,-1.5 46.6,29.9 101.8,47.2 161.1,47.2 193.2,0 298.9,-160.1 298.9,-298.9 0,-4.6 -0.1,-9.1 -0.3,-13.6 20.5,-14.7 38.3,-33.2 52.4,-54.3 z"
         inkscape:connector-curvature="0"
         style="fill:#828282;fill-opacity:1" />
    </g>
  </g>
</svg>
